<?xml version="1.0" encoding="UTF-8"?>
<svg width="24px" height="24px" viewBox="0 0 24 24" version="1.1" xmlns="http://www.w3.org/2000/svg" xmlns:xlink="http://www.w3.org/1999/xlink">
    <title>Tarjeta de Fidelidad</title>
    <g id="loyalty-card" stroke="none" stroke-width="1" fill="none" fill-rule="evenodd">
        <!-- Contorno exterior de la tarjeta -->
        <path d="M20,4 L4,4 C2.89,4 2,4.89 2,6 L2,18 C2,19.11 2.89,20 4,20 L20,20 C21.11,20 22,19.11 22,18 L22,6 C22,4.89 21.11,4 20,4 Z M20,18 L4,18 L4,6 L20,6 L20,18 Z" id="card-outline" fill="#212121"></path>
        
        <!-- Banda magnética -->
        <path d="M4,8 L20,8 L20,10 L4,10 L4,8 Z" id="magnetic-stripe" fill="#212121"></path>
        
        <!-- Logotipo esquemático -->
        <path d="M14,16.5 C14,17.33 13.33,18 12.5,18 L11.5,18 C10.67,18 10,17.33 10,16.5 L10,15.5 C10,14.67 10.67,14 11.5,14 L12.5,14 C13.33,14 14,14.67 14,15.5 L14,16.5 Z" id="logo" fill="#212121"></path>
        
        <!-- Chip de la tarjeta -->
        <path d="M8,14 L10,14 L10,16 L8,16 L8,14 Z" id="card-chip" fill="#212121"></path>
        
        <!-- Puntos de colección / Sellos -->
        <circle id="stamp-1" fill="#212121" cx="19" cy="14.5" r="0.5"></circle>
        <circle id="stamp-2" fill="#212121" cx="17" cy="14.5" r="0.5"></circle>
        <circle id="stamp-3" fill="#212121" cx="15" cy="14.5" r="0.5"></circle>
        
        <!-- Información de usuario (esquemática) -->
        <path d="M6,11 L12,11 L12,11.5 L6,11.5 L6,11 Z" id="user-info-1" fill="#212121"></path>
        <path d="M6,12 L10,12 L10,12.5 L6,12.5 L6,12 Z" id="user-info-2" fill="#212121"></path>
    </g>
</svg>
